#!OML:ASF I:\Actors\actors\Patient Classification 2\Patient 1\Session 1\actor1.ASF
:FULLY-SPECIFIED
:DEGREES
551
root -0.408208 18.8804 5.2164 13.1986 2.61801 -2.10544
lowerback 23.3697 0.0382979 0.499207
upperback 2.11931 0.245538 0.553221
thorax -10.7361 0.107609 0.250293
lowerneck -19.0141 -2.67766 -0.242963
upperneck 6.42777 -4.06975 4.78828
head 5.09766 -1.64687 1.15656
rclavicle -5.96354e-016 -2.48481e-015
rhumerus -4.0943 26.1042 -84.2783
rradius 53.8496
rwrist 16.0011
rhand -12.7359 -39.1312
rfingers 7.12502
rthumb 13.3478 -68.6837
lclavicle -5.96354e-016 -2.48481e-015
lhumerus -10.3962 -33.6102 89.112
lradius 60.3136
lwrist 1.32471
lhand -10.7357 -17.3909
lfingers 7.12502
lthumb 15.2751 12.025
rfemur -7.63722 0.0202123 15.7031
rtibia 1.11319e-014
rfoot -17.1612 -17.9015
rtoes -3.44962
lfemur -25.0323 -1.16133 -12.3845
ltibia 27.0495
lfoot -16.0061 6.82367
ltoes -55.8211
552
root -0.409604 18.8768 5.24317 12.7101 2.55085 -2.10612
lowerback 22.9782 0.0274278 0.507228
upperback 2.03521 0.2318 0.564882
thorax -10.6186 0.101278 0.263055
lowerneck -19.118 -2.69035 -0.391764
upperneck 6.5289 -4.07065 4.9147
head 5.1521 -1.63812 1.21869
rclavicle 6.60959e-015 3.18055e-015
rhumerus -5.35402 26.2085 -84.6739
rradius 54.2121
rwrist 15.9389
rhand -12.5373 -39.1701
rfingers 7.12502
rthumb 13.5392 -68.7099
lclavicle 6.60959e-015 3.18055e-015
lhumerus -11.7693 -33.3272 89.7403
lradius 60.2904
lwrist 1.50015
lhand -10.6875 -17.2351
lfingers 7.12502
lthumb 15.3215 12.1773
rfemur -7.00563 0.124751 15.7072
rtibia 4.77083e-015
rfoot -17.3638 -17.7762
rtoes -3.23962
lfemur -24.2828 -1.2928 -12.3845
ltibia 26.8932
lfoot -16.2019 6.88368
ltoes -55.8376
553
root -0.412412 18.8728 5.26925 12.2385 2.40711 -2.10942
lowerback 22.5498 0.0495302 0.471458
upperback 1.94997 0.248609 0.567552
thorax -10.4817 0.110913 0.28132
lowerneck -19.196 -2.68387 -0.463288
upperneck 6.63826 -4.05834 4.98538
head 5.20184 -1.62513 1.25252
rclavicle -4.22417e-015 -6.26172e-015
rhumerus -6.70217 26.2814 -85.1046
rradius 54.685
rwrist 15.8104
rhand -12.6081 -39.0841
rfingers 7.12502
rthumb 13.4709 -68.6285
lclavicle -4.22417e-015 -6.26172e-015
lhumerus -13.1319 -32.96 90.3577
lradius 60.2303
lwrist 1.57031
lhand -10.6905 -17.1368
lfingers 7.12502
lthumb 15.3186 12.2759
rfemur -6.40376 0.304502 15.7065
rtibia 0
rfoot -17.5358 -17.6921
rtoes -3.23849
lfemur -23.5317 -1.46208 -12.379
ltibia 26.7362
lfoot -16.4053 7.04308
ltoes -55.8317
554
root -0.416535 18.8698 5.29555 11.7657 2.28558 -2.09455
lowerback 22.1221 0.0701846 0.443576
upperback 1.86175 0.262843 0.542671
thorax -10.3475 0.1183 0.265551
lowerneck -19.2933 -2.68703 -0.359496
upperneck 6.78464 -4.08395 4.88788
head 5.25954 -1.63732 1.20119
rclavicle 3.8763e-015 8.94531e-016
rhumerus -7.86263 26.1778 -85.6459
rradius 54.8345
rwrist 15.7974
rhand -12.6026 -39.0513
rfingers 7.12502
rthumb 13.4762 -68.5953
lclavicle 3.8763e-015 8.94531e-016
lhumerus -14.52 -32.6486 90.8796
lradius 60.2396
lwrist 1.65398
lhand -10.584 -17.0058
lfingers 7.12502
lthumb 15.4212 12.399
rfemur -5.79345 0.459374 15.6977
rtibia -6.36111e-015
rfoot -17.6524 -17.6244
rtoes -3.43706
lfemur -22.7769 -1.68282 -12.3801
ltibia 26.5736
lfoot -16.6296 7.21057
ltoes -55.7663
555
root -0.420194 18.8682 5.32446 11.3224 2.16466 -2.08039
lowerback 21.6347 0.0991433 0.444872
upperback 1.75909 0.295189 0.519948
thorax -10.196 0.133003 0.230377
lowerneck -19.3412 -2.71833 -0.362313
upperneck 6.90754 -4.12895 4.87053
head 5.30679 -1.6572 1.19064
rclavicle -5.51627e-015 8.94531e-016
rhumerus -8.87626 26.0161 -86.1753
rradius 54.6906
rwrist 15.8852
rhand -12.2381 -38.9614
rfingers 7.12502
rthumb 13.8276 -68.4818
lclavicle -5.51627e-015 8.94531e-016
lhumerus -15.9492 -32.3354 91.4285
lradius 60.2661
lwrist 1.72436
lhand -10.4055 -16.7604
lfingers 7.12502
lthumb 15.5932 12.631
rfemur -5.21002 0.610855 15.6869
rtibia 1.66979e-014
rfoot -17.7326 -17.5497
rtoes -3.78331
lfemur -22.045 -1.85214 -12.3899
ltibia 26.4076
lfoot -16.8303 7.35596
ltoes -55.8121
556
root -0.423854 18.8657 5.35306 10.8946 2.06306 -2.05784
lowerback 21.0752 0.119429 0.431079
upperback 1.71078 0.315082 0.527314
thorax -9.94342 0.143545 0.241102
lowerneck -19.5292 -2.74481 -0.493935
upperneck 7.09021 -4.15338 4.96731
head 5.40009 -1.65864 1.23737
rclavicle -4.62174e-015 1.88845e-015
rhumerus -9.76552 25.9243 -86.5659
rradius 54.5567
rwrist 15.9288
rhand -11.4999 -38.8284
rfingers 7.12502
rthumb 14.5389 -68.2989
lclavicle -4.62174e-015 1.88845e-015
lhumerus -17.2214 -31.8873 91.953
lradius 60.2061
lwrist 1.67829
lhand -10.3217 -16.6194
lfingers 7.12502
lthumb 15.6738 12.7657
rfemur -4.64511 0.739912 15.6674
rtibia -4.77083e-015
rfoot -17.817 -17.4786
rtoes -4.11551
lfemur -21.3443 -1.96812 -12.4223
ltibia 26.2433
lfoot -17.0176 7.45929
ltoes -55.8723
557
root -0.430792 18.8621 5.37229 10.4447 2.12609 -1.9922
lowerback 20.6709 0.0818663 0.418713
upperback 1.66013 0.26135 0.536656
thorax -9.77787 0.119292 0.274249
lowerneck -19.8655 -2.78045 -0.657909
upperneck 7.38651 -4.19111 5.0882
head 5.55473 -1.66088 1.29395
rclavicle -1.31198e-014 -8.64713e-015
rhumerus -10.7168 25.7281 -86.9611
rradius 54.5636
rwrist 16.0672
rhand -10.9696 -38.7995
rfingers 7.12502
rthumb 15.0498 -68.2325
lclavicle -1.31198e-014 -8.64713e-015
lhumerus -18.4131 -31.4016 92.3998
lradius 60.1344
lwrist 1.61146
lhand -10.4015 -16.6682
lfingers 7.12502
lthumb 15.597 12.723
rfemur -4.05389 0.702012 15.6385
rtibia -5.56597e-015
rfoot -17.9251 -17.4076
rtoes -4.24475
lfemur -20.6967 -2.11814 -12.4853
ltibia 26.0763
lfoot -17.1298 7.4531
ltoes -55.8693
558
root -0.438052 18.8576 5.39283 9.93591 2.14568 -1.94792
lowerback 20.3684 0.0593926 0.433069
upperback 1.55626 0.231504 0.516572
thorax -9.7267 0.104193 0.252743
lowerneck -19.9708 -2.80648 -0.704112
upperneck 7.62561 -4.22876 5.10793
head 5.65012 -1.67225 1.30182
rclavicle 3.08116e-015 -3.37934e-015
rhumerus -11.8986 25.4597 -87.4456
rradius 54.68
rwrist 16.2115
rhand -11.2366 -38.8224
rfingers 7.12502
rthumb 14.7925 -68.2745
lclavicle 3.08116e-015 -3.37934e-015
lhumerus -19.7078 -30.9478 92.8492
lradius 60.0546
lwrist 1.64496
lhand -10.4236 -16.6441
lfingers 7.12502
lthumb 15.5757 12.7487
rfemur -3.39955 0.71663 15.6325
rtibia 7.95139e-016
rfoot -18.0894 -17.3226
rtoes -4.24436
lfemur -19.9652 -2.24952 -12.533
ltibia 25.9063
lfoot -17.2382 7.4706
ltoes -55.884
559
root -0.443813 18.852 5.4216 9.39014 1.97164 -1.96889
lowerback 19.9879 0.0940516 0.456217
upperback 1.46687 0.275611 0.477787
thorax -9.61587 0.123212 0.185086
lowerneck -19.9035 -2.79838 -0.559264
upperneck 7.79139 -4.24927 5.00368
head 5.6874 -1.6834 1.24325
rclavicle 7.50412e-015 4.96962e-015
rhumerus -13.1026 25.207 -87.9681
rradius 54.7809
rwrist 16.3228
rhand -12.6004 -38.7263
rfingers 7.12502
rthumb 13.4784 -68.2702
lclavicle 7.50412e-015 4.96962e-015
lhumerus -20.9715 -30.433 93.253
lradius 59.8776
lwrist 1.64941
lhand -10.345 -16.5028
lfingers 7.12502
lthumb 15.6514 12.8841
rfemur -2.72239 0.936671 15.6722
rtibia 3.97569e-015
rfoot -18.2418 -17.2593
rtoes -4.42753
lfemur -19.1107 -2.27984 -12.5306
ltibia 25.7277
lfoot -17.4584 7.51553
ltoes -55.7979
560
root -0.451897 18.8471 5.44679 8.92538 1.82537 -2.01149
lowerback 19.554 0.14214 0.488302
upperback 1.37169 0.341319 0.462215
thorax -9.48135 0.152815 0.132452
lowerneck -19.8936 -2.81398 -0.50068
upperneck 7.98789 -4.29347 4.99376
head 5.74855 -1.6996 1.22532
rclavicle -3.52843e-015 -5.06901e-015
rhumerus -14.284 24.8161 -88.4485
rradius 54.9043
rwrist 16.5035
rhand -14.0909 -38.5508
rfingers 7.12502
rthumb 12.0414 -68.1844
lclavicle -3.52843e-015 -5.06901e-015
lhumerus -22.1755 -29.8394 93.6464
lradius 59.727
lwrist 1.53306
lhand -10.1987 -16.2749
lfingers 7.12502
lthumb 15.7923 13.101
rfemur -2.14805 1.12668 15.7451
rtibia 7.95139e-015
rfoot -18.3427 -17.2114
rtoes -4.48231
lfemur -18.356 -2.29874 -12.4838
ltibia 25.5372
lfoot -17.6567 7.49664
ltoes -55.6229
